# xmcd
#
# Track frame offsets: 
#        150
#        19691
#        36972
#        57570
#        77305
#        95438
#        117136
#        136330
#        152465
#        180192
#        195652
#        212189
#
# Disc length: 3073 seconds
#
# Revision: 0
# Processed by: cddbd v1.5.2PL0 Copyright (c) Steve Scherf et al.
# Submitted via: ExactAudioCopy v1.1
#
DISCID=910bff0c
DTITLE=Jake Bartley Band (The) - Brotherhood
DYEAR=2019
DGENRE=Americana
TTITLE0=Slippin'
TTITLE1=This One's for the HighwaY
TTITLE2=The Miles
TTITLE3=Cannonball feat. Vince Gill
TTITLE4=Next 200 Years
TTITLE5=Due West
TTITLE6=Wild and Free
TTITLE7=Where Rainbows Never Die
TTITLE8=One Way Out feat. Robby Turner and Randy Kohrs
TTITLE9=Too Sad to Sing the Blues
TTITLE10=21
TTITLE11=Music Life
EXTD=
EXTT0=
EXTT1=
EXTT2=
EXTT3=
EXTT4=
EXTT5=
EXTT6=
EXTT7=
EXTT8=
EXTT9=
EXTT10=
EXTT11=
PLAYORDER=
